<?xml version="1.0" encoding="UTF-8"?>
<svg id="Ebene_1" data-name="Ebene 1" xmlns="http://www.w3.org/2000/svg" viewBox="0 0 566.93 566.93">
  <defs>
    <style>
      .cls-1, .cls-2 {
        fill: #e0e5ec;
      }

      .cls-2 {
        fill-rule: evenodd;
      }
    </style>
  </defs>
  <g>
    <path class="cls-2" d="M176.72,349.3c0-4.65,3.77-8.42,8.42-8.42s8.42,3.77,8.42,8.42-3.77,8.42-8.42,8.42-8.42-3.77-8.42-8.42h0Z"/>
    <path class="cls-2" d="M163.14,332.19c0-3.1,2.51-5.61,5.61-5.61s5.61,2.51,5.61,5.61-2.51,5.62-5.61,5.62-5.61-2.51-5.61-5.62h0Z"/>
    <path class="cls-2" d="M23.13,321.95c0-4.65,3.77-8.42,8.42-8.42s8.42,3.77,8.42,8.42-3.77,8.42-8.42,8.42-8.42-3.77-8.42-8.42h0Z"/>
    <path class="cls-2" d="M14.8,278.48c0-4.65,3.77-8.42,8.42-8.42s8.42,3.77,8.42,8.42-3.77,8.42-8.42,8.42-8.42-3.77-8.42-8.42h0Z"/>
    <path class="cls-2" d="M28.38,236.46c0-4.65,3.77-8.42,8.42-8.42s8.42,3.77,8.42,8.42-3.77,8.42-8.42,8.42-8.42-3.77-8.42-8.42h0Z"/>
    <path class="cls-2" d="M60.26,205.49c0-4.65,3.77-8.42,8.42-8.42s8.42,3.77,8.42,8.42-3.77,8.42-8.42,8.42-8.42-3.77-8.42-8.42h0Z"/>
    <path class="cls-2" d="M103.55,192.09c0-4.65,3.77-8.42,8.42-8.42s8.42,3.77,8.42,8.42-3.77,8.42-8.42,8.42-8.42-3.77-8.42-8.42h0Z"/>
    <path class="cls-2" d="M148.47,200.24c0-4.65,3.77-8.42,8.42-8.42s8.42,3.77,8.42,8.42-3.77,8.42-8.42,8.42-8.42-3.77-8.42-8.42h0Z"/>
    <path class="cls-2" d="M184.15,227.22c0-4.65,3.77-8.42,8.42-8.42s8.42,3.77,8.42,8.42-3.77,8.42-8.42,8.42-8.42-3.77-8.42-8.42h0Z"/>
    <path class="cls-2" d="M134.16,347.76c0-3.1,2.51-5.61,5.61-5.61s5.61,2.51,5.61,5.61-2.51,5.62-5.61,5.62-5.61-2.51-5.61-5.62h0Z"/>
    <path class="cls-2" d="M101.01,349.76c0-3.1,2.51-5.61,5.61-5.61s5.61,2.51,5.61,5.61-2.51,5.62-5.61,5.62-5.61-2.51-5.61-5.62h0Z"/>
    <path class="cls-2" d="M72.39,337.44c0-3.1,2.51-5.61,5.61-5.61s5.61,2.51,5.61,5.61-2.51,5.62-5.61,5.62-5.61-2.51-5.61-5.62h0Z"/>
    <path class="cls-2" d="M51.38,311.72c0-3.1,2.51-5.61,5.61-5.61s5.61,2.51,5.61,5.61-2.51,5.62-5.61,5.62-5.61-2.51-5.61-5.62h0Z"/>
    <path class="cls-2" d="M44.32,278.57c0-3.1,2.51-5.61,5.61-5.61s5.61,2.51,5.61,5.61-2.51,5.61-5.61,5.61-5.61-2.51-5.61-5.61h0Z"/>
    <path class="cls-2" d="M55.55,249.41c0-3.1,2.51-5.61,5.61-5.61s5.61,2.51,5.61,5.61-2.51,5.61-5.61,5.61-5.61-2.51-5.61-5.61h0Z"/>
    <path class="cls-2" d="M78.73,226.41c0-3.1,2.51-5.61,5.61-5.61s5.61,2.51,5.61,5.61-2.51,5.61-5.61,5.61-5.61-2.51-5.61-5.61h0Z"/>
    <path class="cls-2" d="M108.44,214.82c0-3.1,2.47-5.61,5.52-5.61s5.52,2.51,5.52,5.61-2.47,5.61-5.52,5.61-5.52-2.51-5.52-5.61h0Z"/>
    <path class="cls-2" d="M142.49,222.24c0-3.1,2.51-5.61,5.61-5.61s5.61,2.51,5.61,5.61-2.51,5.61-5.61,5.61-5.61-2.51-5.61-5.61h0Z"/>
    <path class="cls-2" d="M168.57,242.53c0-3.1,2.51-5.61,5.61-5.61s5.61,2.51,5.61,5.61-2.51,5.61-5.61,5.61-5.61-2.51-5.61-5.61h0Z"/>
    <path class="cls-2" d="M137.96,372.13c0-4.65,3.77-8.42,8.42-8.42s8.42,3.77,8.42,8.42-3.77,8.42-8.42,8.42-8.42-3.77-8.42-8.42h0Z"/>
    <path class="cls-2" d="M92.32,374.84c0-4.65,3.77-8.42,8.42-8.42s8.42,3.77,8.42,8.42-3.77,8.42-8.42,8.42-8.42-3.77-8.42-8.42h0Z"/>
    <path class="cls-2" d="M50.66,356.55c0-4.65,3.77-8.42,8.42-8.42s8.42,3.77,8.42,8.42-3.77,8.42-8.42,8.42-8.42-3.77-8.42-8.42h0Z"/>
  </g>
  <g>
    <path class="cls-1" d="M192.12,282.97c.94-.73,1.67-1.63,2.19-2.7.52-1.07.77-2.31.77-3.72,0-1.85-.4-3.4-1.21-4.66-.81-1.26-1.97-2.21-3.48-2.86-1.51-.65-3.34-.97-5.48-.97h-9.98v28.21h4.86v-10.89h5.54l5.69,10.89h5.19v-.25l-6.36-11.76c.84-.35,1.59-.77,2.25-1.29ZM179.8,271.94h5.11c1.21,0,2.21.2,3,.59.79.39,1.37.96,1.75,1.68.38.73.57,1.59.57,2.57,0,.9-.2,1.71-.59,2.43-.39.72-.98,1.28-1.75,1.7-.77.41-1.74.62-2.91.62h-5.19v-9.59Z"/>
    <path class="cls-1" d="M215.65,277.8c-.74-.91-1.67-1.62-2.8-2.12-1.12-.5-2.43-.76-3.93-.76-1.36,0-2.61.25-3.78.76s-2.17,1.23-3.02,2.18c-.85.95-1.52,2.09-2,3.42-.48,1.33-.72,2.82-.72,4.46v.77c0,1.43.23,2.77.7,4.01s1.13,2.32,2.01,3.24c.87.92,1.93,1.63,3.18,2.14,1.25.51,2.64.76,4.19.76,1.37,0,2.57-.19,3.61-.56s1.92-.86,2.64-1.46c.72-.6,1.31-1.23,1.76-1.89l-2.46-2.38c-.65.83-1.41,1.47-2.29,1.92-.88.45-1.88.68-3,.68-.89,0-1.68-.16-2.38-.49-.7-.33-1.29-.78-1.78-1.37s-.86-1.26-1.11-2.04c-.19-.58-.28-1.21-.33-1.87h13.73v-2c0-1.51-.18-2.89-.55-4.15-.37-1.25-.92-2.33-1.67-3.24ZM213.26,283.83h-9.02c.05-.36.1-.71.18-1.04.21-.87.52-1.62.92-2.24.4-.62.9-1.09,1.5-1.42.6-.33,1.29-.49,2.06-.49,1.03,0,1.86.23,2.48.68.62.45,1.08,1.05,1.39,1.78.3.74.47,1.52.49,2.36v.37Z"/>
    <path class="cls-1" d="M235.51,277.47c-.6-.77-1.33-1.38-2.18-1.81-.96-.49-2.12-.74-3.48-.74s-2.47.25-3.51.76c-1.03.51-1.91,1.24-2.63,2.19-.72.95-1.28,2.08-1.67,3.39-.39,1.31-.58,2.76-.58,4.35v.41c0,1.52.19,2.94.58,4.23.39,1.3.95,2.43,1.68,3.38.73.96,1.61,1.7,2.63,2.23,1.03.53,2.18.79,3.46.79s2.44-.25,3.4-.74c.79-.4,1.48-.96,2.06-1.64v1.51c0,1.1-.21,2.03-.62,2.79-.41.76-1,1.34-1.75,1.73-.76.39-1.67.59-2.74.59-.99,0-1.94-.21-2.85-.62-.9-.41-1.73-1.07-2.48-1.96l-2.19,2.75c.61.83,1.37,1.49,2.28,2,.91.51,1.85.88,2.83,1.11.97.23,1.86.35,2.66.35,1.89,0,3.54-.35,4.98-1.04,1.43-.69,2.55-1.69,3.35-3.01s1.2-2.92,1.2-4.8v-20.38h-4.24l-.19,2.16ZM233.68,292.18c-.7.46-1.6.7-2.7.7-.84,0-1.57-.18-2.18-.53-.61-.35-1.12-.85-1.51-1.47-.39-.63-.68-1.35-.87-2.18-.19-.83-.28-1.72-.28-2.67v-.41c0-.96.1-1.85.29-2.69.19-.84.49-1.58.88-2.21.39-.63.9-1.13,1.52-1.49.62-.36,1.35-.54,2.19-.54s1.54.14,2.15.42c.61.28,1.11.67,1.51,1.16.23.28.42.6.6.94v9.15c-.38.77-.91,1.38-1.6,1.84Z"/>
    <path class="cls-1" d="M258.18,290.34c-.34.72-.82,1.31-1.48,1.76-.77.52-1.82.78-3.15.78-.46,0-.9-.06-1.32-.19-.41-.13-.77-.35-1.08-.66s-.56-.72-.74-1.23c-.18-.51-.27-1.15-.27-1.91v-13.58h-4.67v13.54c0,1.38.17,2.57.5,3.56.34.99.81,1.8,1.42,2.42.61.62,1.35,1.08,2.2,1.38s1.79.45,2.81.45c1.41,0,2.61-.24,3.62-.73.92-.44,1.68-1.06,2.3-1.82l.12,2.16h4.42v-20.96h-4.69v15.03Z"/>
    <rect class="cls-1" x="268.74" y="266.51" width="4.69" height="29.76"/>
    <path class="cls-1" d="M295.84,291.43v-9.32c0-1.6-.35-2.94-1.06-4-.7-1.07-1.67-1.86-2.89-2.39-1.22-.53-2.62-.79-4.19-.79-1.32,0-2.51.17-3.56.52s-1.97.83-2.73,1.43c-.76.61-1.34,1.3-1.74,2.07-.4.77-.6,1.58-.6,2.4h4.65c0-.56.15-1.05.46-1.49.31-.44.74-.79,1.3-1.05.56-.26,1.21-.39,1.98-.39.83,0,1.51.15,2.06.45.55.3.96.72,1.23,1.26.27.54.41,1.19.41,1.94v1.45h-2.98c-1.52,0-2.88.15-4.07.46-1.19.3-2.19.75-3.01,1.33-.82.58-1.44,1.3-1.86,2.16-.42.86-.63,1.84-.63,2.95,0,1.19.3,2.25.91,3.19.61.94,1.45,1.68,2.52,2.23,1.07.55,2.29.82,3.66.82,1.08,0,2.04-.17,2.88-.52.83-.35,1.55-.8,2.15-1.35.22-.2.41-.41.6-.62,0,.06.01.12.02.17.12.78.29,1.42.51,1.93h4.79v-.31c-.26-.56-.46-1.21-.59-1.97-.14-.76-.2-1.61-.2-2.57ZM289.1,292.37c-.72.39-1.55.59-2.51.59-.71,0-1.31-.13-1.81-.39-.5-.26-.87-.62-1.13-1.08-.26-.46-.39-.96-.39-1.52s.11-1.05.33-1.49c.22-.44.55-.81.99-1.12.44-.31.99-.55,1.65-.71.66-.16,1.42-.24,2.29-.24h2.63v3.92c-.1.19-.21.38-.35.58-.41.57-.98,1.06-1.69,1.45Z"/>
    <path class="cls-1" d="M310.56,292.76c-.3.04-.61.06-.93.06-.45,0-.85-.06-1.18-.17s-.6-.35-.78-.69c-.19-.34-.28-.84-.28-1.48v-11.76h3.74v-3.41h-3.74v-5.13h-4.67v5.13h-3.41v3.41h3.41v12.05c0,1.43.23,2.58.7,3.45.46.87,1.11,1.49,1.94,1.87.83.38,1.78.57,2.85.57.66,0,1.24-.05,1.75-.14.51-.09.96-.19,1.35-.31l-.02-3.56c-.18.04-.42.08-.72.12Z"/>
    <path class="cls-1" d="M330.93,277.8c-.74-.91-1.67-1.62-2.8-2.12-1.12-.5-2.43-.76-3.93-.76-1.36,0-2.61.25-3.78.76s-2.17,1.23-3.02,2.18c-.85.95-1.52,2.09-2,3.42-.48,1.33-.72,2.82-.72,4.46v.77c0,1.43.23,2.77.7,4.01s1.13,2.32,2,3.24c.87.92,1.93,1.63,3.18,2.14,1.25.51,2.64.76,4.19.76,1.37,0,2.57-.19,3.61-.56s1.92-.86,2.64-1.46c.72-.6,1.31-1.23,1.76-1.89l-2.46-2.38c-.65.83-1.41,1.47-2.29,1.92-.88.45-1.88.68-3,.68-.89,0-1.68-.16-2.38-.49-.7-.33-1.29-.78-1.78-1.37s-.86-1.26-1.11-2.04c-.19-.58-.28-1.21-.33-1.87h13.73v-2c0-1.51-.18-2.89-.55-4.15-.37-1.25-.92-2.33-1.67-3.24ZM328.53,283.83h-9.02c.05-.36.1-.71.18-1.04.21-.87.52-1.62.92-2.24.4-.62.9-1.09,1.5-1.42.6-.33,1.29-.49,2.06-.49,1.03,0,1.86.23,2.48.68.62.45,1.08,1.05,1.39,1.78.3.74.47,1.52.49,2.36v.37Z"/>
    <path class="cls-1" d="M350.35,277.31c-.6-.69-1.28-1.25-2.07-1.66-.96-.49-2.07-.74-3.33-.74s-2.43.25-3.45.76c-1.02.51-1.88,1.24-2.59,2.19-.71.95-1.25,2.08-1.63,3.39-.37,1.31-.56,2.76-.56,4.35v.41c0,1.52.19,2.94.56,4.23.37,1.3.92,2.43,1.63,3.38.71.96,1.57,1.7,2.59,2.23,1.01.53,2.15.79,3.42.79s2.4-.25,3.36-.74c.89-.46,1.65-1.1,2.3-1.91l.23,2.26h4.24v-29.76h-4.69v10.8ZM348.7,292.18c-.68.46-1.56.7-2.61.7-.84,0-1.56-.18-2.16-.53-.6-.35-1.09-.85-1.46-1.47-.37-.63-.65-1.35-.82-2.18-.17-.83-.26-1.72-.26-2.67v-.41c0-.96.09-1.85.27-2.69.18-.84.46-1.58.84-2.21.38-.63.87-1.13,1.46-1.49.59-.36,1.32-.54,2.17-.54.8,0,1.49.14,2.08.42.59.28,1.08.67,1.48,1.16.26.32.47.68.66,1.07v8.89s-.02.05-.03.07c-.39.79-.93,1.42-1.62,1.89Z"/>
    <polygon class="cls-1" points="376.69 268.06 371.83 268.06 371.83 296.27 375.33 296.27 376.69 296.27 389.49 296.27 389.49 292.41 376.69 292.41 376.69 268.06"/>
    <path class="cls-1" d="M410.09,291.43v-9.32c0-1.6-.35-2.94-1.06-4-.7-1.07-1.67-1.86-2.89-2.39-1.22-.53-2.62-.79-4.19-.79-1.32,0-2.51.17-3.56.52s-1.97.83-2.73,1.43c-.76.61-1.34,1.3-1.74,2.07-.4.77-.6,1.58-.6,2.4h4.65c0-.56.15-1.05.46-1.49.31-.44.74-.79,1.3-1.05.56-.26,1.21-.39,1.98-.39.83,0,1.51.15,2.06.45.55.3.96.72,1.23,1.26.27.54.41,1.19.41,1.94v1.45h-2.98c-1.52,0-2.88.15-4.07.46-1.19.3-2.19.75-3.01,1.33-.82.58-1.44,1.3-1.86,2.16-.42.86-.63,1.84-.63,2.95,0,1.19.3,2.25.91,3.19.61.94,1.45,1.68,2.52,2.23,1.07.55,2.29.82,3.66.82,1.08,0,2.04-.17,2.88-.52.83-.35,1.55-.8,2.15-1.35.22-.2.41-.41.6-.62,0,.06.01.12.02.17.12.78.29,1.42.51,1.93h4.79v-.31c-.26-.56-.46-1.21-.59-1.97-.14-.76-.2-1.61-.2-2.57ZM403.35,292.37c-.72.39-1.55.59-2.51.59-.71,0-1.31-.13-1.81-.39-.5-.26-.87-.62-1.13-1.08-.26-.46-.39-.96-.39-1.52s.11-1.05.33-1.49c.22-.44.55-.81.99-1.12.44-.31.99-.55,1.65-.71.66-.16,1.42-.24,2.29-.24h2.63v3.92c-.1.19-.21.38-.35.58-.41.57-.98,1.06-1.69,1.45Z"/>
    <path class="cls-1" d="M423.17,289.63l-4.54-14.32h-5.04l7.42,20.91-.68,1.83c-.23.7-.51,1.25-.84,1.67-.33.41-.75.71-1.27.9-.52.19-1.16.28-1.94.28-.12,0-.27,0-.46-.02-.19-.01-.35-.03-.47-.04l.02,3.56c.34.08.69.15,1.07.22.38.07.78.11,1.19.11,1.05,0,1.94-.17,2.67-.51.74-.34,1.35-.79,1.85-1.34.5-.55.9-1.13,1.21-1.73.31-.61.56-1.17.76-1.69l8.41-24.16h-5l-4.37,14.32Z"/>
    <path class="cls-1" d="M451.39,277.8c-.74-.91-1.67-1.62-2.8-2.12-1.12-.5-2.43-.76-3.93-.76-1.36,0-2.61.25-3.78.76s-2.17,1.23-3.02,2.18c-.85.95-1.52,2.09-2,3.42-.48,1.33-.72,2.82-.72,4.46v.77c0,1.43.23,2.77.7,4.01s1.13,2.32,2,3.24c.87.92,1.93,1.63,3.18,2.14,1.25.51,2.64.76,4.19.76,1.37,0,2.57-.19,3.61-.56s1.92-.86,2.64-1.46c.72-.6,1.31-1.23,1.76-1.89l-2.46-2.38c-.65.83-1.41,1.47-2.29,1.92-.88.45-1.88.68-3,.68-.89,0-1.68-.16-2.38-.49-.7-.33-1.29-.78-1.78-1.37s-.86-1.26-1.11-2.04c-.19-.58-.28-1.21-.33-1.87h13.73v-2c0-1.51-.18-2.89-.55-4.15-.37-1.25-.92-2.33-1.67-3.24ZM449,283.83h-9.02c.05-.36.1-.71.18-1.04.21-.87.52-1.62.92-2.24.4-.62.9-1.09,1.5-1.42.6-.33,1.29-.49,2.06-.49,1.03,0,1.86.23,2.48.68.62.45,1.08,1.05,1.39,1.78.3.74.47,1.52.49,2.36v.37Z"/>
    <path class="cls-1" d="M467.46,274.92c-1.05,0-1.97.24-2.76.72-.79.48-1.45,1.14-1.98,2-.03.06-.06.12-.09.18l-.13-2.5h-4.45v20.96h4.67v-14.28c.21-.5.49-.95.84-1.32.41-.42.91-.74,1.52-.97.61-.23,1.31-.34,2.11-.34.32,0,.65.01.98.04.33.03.64.06.92.12l.04-4.34c-.17-.06-.42-.12-.75-.17-.33-.05-.64-.08-.92-.08Z"/>
    <path class="cls-1" d="M503.22,271.35c-1.03-1.19-2.27-2.1-3.7-2.73-1.43-.63-3.02-.94-4.76-.94s-3.31.31-4.74.94c-1.43.63-2.66,1.54-3.7,2.73-1.04,1.19-1.84,2.63-2.41,4.32-.57,1.68-.85,3.59-.85,5.72v1.55c0,2.13.29,4.04.86,5.73.57,1.69,1.39,3.13,2.43,4.32,1.05,1.19,2.28,2.1,3.71,2.72,1.43.63,3.01.94,4.74.94s3.33-.31,4.77-.94c1.43-.63,2.66-1.53,3.69-2.72,1.03-1.19,1.82-2.63,2.37-4.32.56-1.69.83-3.6.83-5.73v-1.55c0-2.13-.28-4.04-.84-5.72-.56-1.69-1.36-3.13-2.39-4.32ZM501.59,282.94c0,1.58-.15,2.97-.46,4.18-.3,1.21-.75,2.24-1.33,3.07-.58.83-1.29,1.46-2.13,1.88-.84.42-1.8.63-2.89.63s-2.03-.21-2.87-.63-1.56-1.05-2.16-1.88c-.6-.83-1.06-1.86-1.37-3.07-.31-1.21-.46-2.61-.46-4.18v-1.59c0-1.58.15-2.97.46-4.17.31-1.21.76-2.22,1.35-3.04.59-.82,1.3-1.44,2.14-1.86s1.79-.63,2.87-.63,2.03.21,2.89.63c.85.42,1.57,1.04,2.16,1.86.59.82,1.03,1.83,1.34,3.04.3,1.21.46,2.6.46,4.17v1.59Z"/>
    <path class="cls-1" d="M527.14,276.68c-.59-.62-1.29-1.07-2.11-1.35-.82-.28-1.73-.42-2.74-.42-1.25,0-2.39.24-3.41.73-1.02.48-1.9,1.17-2.62,2.06-.04.05-.07.1-.11.15l-.15-2.55h-4.4v20.96h4.67v-14.87c.15-.3.32-.58.51-.84.43-.58.97-1.04,1.6-1.38.63-.34,1.35-.5,2.15-.5s1.49.13,2.04.38c.55.25.97.67,1.26,1.26.29.59.44,1.38.44,2.39v13.56h4.69v-13.54c0-1.43-.15-2.64-.46-3.63-.31-.99-.76-1.79-1.35-2.41Z"/>
    <path class="cls-1" d="M552.13,285.19c0-1.51-.18-2.89-.55-4.15-.37-1.25-.92-2.33-1.67-3.24-.74-.91-1.67-1.62-2.8-2.12-1.12-.5-2.43-.76-3.93-.76-1.36,0-2.61.25-3.78.76s-2.17,1.23-3.02,2.18c-.85.95-1.52,2.09-2,3.42-.48,1.33-.72,2.82-.72,4.46v.77c0,1.43.23,2.77.7,4.01s1.13,2.32,2,3.24c.87.92,1.93,1.63,3.18,2.14,1.25.51,2.64.76,4.19.76,1.37,0,2.57-.19,3.61-.56s1.92-.86,2.64-1.46c.72-.6,1.31-1.23,1.76-1.89l-2.46-2.38c-.65.83-1.41,1.47-2.29,1.92-.88.45-1.88.68-3,.68-.89,0-1.68-.16-2.38-.49-.7-.33-1.29-.78-1.78-1.37s-.86-1.26-1.11-2.04c-.19-.58-.28-1.21-.33-1.87h13.73v-2ZM547.52,283.83h-9.02c.05-.36.1-.71.18-1.04.21-.87.52-1.62.92-2.24.4-.62.9-1.09,1.5-1.42.6-.33,1.29-.49,2.06-.49,1.03,0,1.86.23,2.48.68.62.45,1.08,1.05,1.39,1.78.3.74.47,1.52.49,2.36v.37Z"/>
  </g>
</svg>